<svg width="242" height="28" viewBox="0 0 242 28" fill="none" xmlns="http://www.w3.org/2000/svg">
<path fill-rule="evenodd" clip-rule="evenodd" d="M128.968 14.2571C129.041 14.2659 129.113 14.27 129.184 14.27C130.077 14.27 130.849 13.6028 130.959 12.6943L130.963 12.6586C130.966 12.6348 130.969 12.6106 130.97 12.5867C131.406 7.11485 134.932 3.57924 139.955 3.57924C142.945 3.57924 145.737 5.23181 147.424 7.99999C147.938 8.84398 149.04 9.11122 149.883 8.59676C150.727 8.08258 150.995 6.98123 150.48 6.13725C148.138 2.29434 144.204 0 139.955 0C136.456 0 133.395 1.25555 131.105 3.63082C128.996 5.81843 127.682 8.88403 127.405 12.2657V12.2665C127.287 13.2477 127.987 14.1389 128.968 14.2571" fill="white"/>
<path fill-rule="evenodd" clip-rule="evenodd" d="M180.542 0.253174C179.554 0.253174 178.753 1.05435 178.753 2.04266V12.4846C178.753 13.4732 179.554 14.2744 180.542 14.2744C181.531 14.2744 182.332 13.4732 182.332 12.4846V2.04266C182.332 1.05435 181.531 0.253174 180.542 0.253174" fill="white"/>
<path fill-rule="evenodd" clip-rule="evenodd" d="M215.394 12.2744C214.734 5.27693 209.266 0.00012207 202.675 0.00012207C196.08 0.00012207 190.612 5.27995 189.956 12.265L189.953 12.3015C189.852 13.2846 190.567 14.1637 191.55 14.265C191.612 14.2713 191.674 14.2743 191.735 14.2743C192.641 14.2743 193.418 13.5889 193.513 12.6681L193.518 12.6154C194.002 7.46398 197.938 3.57936 202.675 3.57936C207.392 3.57936 211.317 7.4338 211.825 12.5548C211.867 13.5261 212.69 14.2803 213.655 14.2652C214.644 14.2416 215.425 13.4218 215.402 12.4335L215.401 12.3997C215.4 12.358 215.398 12.3161 215.394 12.2744" fill="white"/>
<path fill-rule="evenodd" clip-rule="evenodd" d="M20.6306 0.224243C19.6423 0.224243 18.8411 1.02542 18.8411 2.01373V12.479C18.8411 13.4676 19.6423 14.2687 20.6306 14.2687C21.6189 14.2687 22.4201 13.4676 22.4201 12.479V2.01373C22.4201 1.02542 21.6189 0.224243 20.6306 0.224243" fill="white"/>
<path fill-rule="evenodd" clip-rule="evenodd" d="M6.88409 1.05752C6.5477 0.525508 5.97728 0.232749 5.39148 0.225615C5.38462 0.225615 5.37831 0.224243 5.37145 0.224243C5.3528 0.224243 5.33469 0.226438 5.31603 0.226987C5.28365 0.228084 5.25155 0.229182 5.21945 0.231926C5.19091 0.234395 5.1632 0.237962 5.13522 0.241529C5.10558 0.245645 5.07595 0.24976 5.04632 0.255248C5.01586 0.260735 4.98595 0.267595 4.95605 0.274728C4.92998 0.280765 4.90392 0.28735 4.87785 0.294758C4.8452 0.304087 4.81337 0.314787 4.78154 0.325762C4.75877 0.333719 4.73627 0.341676 4.71377 0.350456C4.67948 0.364175 4.646 0.379266 4.6128 0.394631C4.59332 0.40396 4.57357 0.413014 4.55409 0.423166C4.51951 0.440726 4.48604 0.460207 4.45312 0.479962C4.44049 0.48737 4.4276 0.493406 4.41525 0.501363C4.40922 0.50493 4.40428 0.50932 4.39851 0.513162C4.36614 0.534289 4.33486 0.556787 4.30385 0.580109C4.28822 0.591908 4.27175 0.603157 4.25639 0.615504C3.84592 0.943384 3.58197 1.44741 3.58197 2.01373V12.4038C3.58197 13.3839 4.33705 14.2383 5.3163 14.2677C6.32985 14.2984 7.16121 13.4857 7.16121 12.479L7.07122 9.26632C7.05969 8.85969 7.59473 8.70165 7.80599 9.04901L10.4751 13.4352C10.8156 13.9738 11.3959 14.2687 11.9894 14.2687C12.3738 14.2687 12.7634 14.145 13.0968 13.8838C13.8264 13.3125 13.9649 12.2576 13.4697 11.4742L6.88409 1.05752Z" fill="white"/>
<path fill-rule="evenodd" clip-rule="evenodd" d="M79.6157 0.224243C78.6274 0.224243 77.8262 1.02542 77.8262 2.01373V12.479C77.8262 13.4676 78.6274 14.2687 79.6157 14.2687C80.604 14.2687 81.4051 13.4676 81.4051 12.479V2.01373C81.4051 1.02542 80.604 0.224243 79.6157 0.224243" fill="white"/>
<path fill-rule="evenodd" clip-rule="evenodd" d="M65.8691 1.05752C65.5327 0.525508 64.9623 0.232749 64.3765 0.225615C64.3696 0.225615 64.3633 0.224243 64.3564 0.224243C64.3378 0.224243 64.3197 0.226438 64.301 0.226987C64.2686 0.228084 64.2365 0.229182 64.2044 0.231926C64.1759 0.234395 64.1482 0.237962 64.1202 0.241529C64.0906 0.245645 64.0609 0.24976 64.0313 0.255248C64.0008 0.260735 63.9709 0.267595 63.941 0.274728C63.915 0.280765 63.8889 0.28735 63.8628 0.294758C63.8302 0.304087 63.7984 0.314787 63.7665 0.325762C63.7438 0.333719 63.7213 0.341676 63.6988 0.350456C63.6645 0.364175 63.631 0.379266 63.5978 0.394631C63.5783 0.40396 63.5586 0.413014 63.5391 0.423166C63.5045 0.440726 63.471 0.460207 63.4381 0.479962C63.4255 0.48737 63.4126 0.493406 63.4002 0.501363C63.3942 0.50493 63.3893 0.50932 63.3835 0.513162C63.3511 0.534289 63.3198 0.556787 63.2888 0.580109C63.2732 0.591908 63.2567 0.603157 63.2414 0.615504C62.8309 0.943384 62.567 1.44741 62.567 2.01373V12.4038C62.567 13.3839 63.322 14.2383 64.3013 14.2677C65.3148 14.2984 66.1462 13.4857 66.1462 12.479L66.0562 9.26632C66.0447 8.85969 66.5797 8.70165 66.791 9.04901L69.4601 13.4352C69.8006 13.9738 70.3809 14.2687 70.9744 14.2687C71.3588 14.2687 71.7484 14.145 72.0818 13.8838C72.8113 13.3125 72.9499 12.2576 72.4547 11.4742L65.8691 1.05752Z" fill="white"/>
<path fill-rule="evenodd" clip-rule="evenodd" d="M240.024 0.224243C239.036 0.224243 238.234 1.02542 238.234 2.01373V12.479C238.234 13.4676 239.036 14.2687 240.024 14.2687C241.012 14.2687 241.813 13.4676 241.813 12.479V2.01373C241.813 1.02542 241.012 0.224243 240.024 0.224243" fill="white"/>
<path fill-rule="evenodd" clip-rule="evenodd" d="M226.277 1.05752C225.941 0.525508 225.371 0.232749 224.785 0.225615C224.778 0.225615 224.772 0.224243 224.765 0.224243C224.746 0.224243 224.728 0.226438 224.709 0.226987C224.677 0.228084 224.645 0.229182 224.613 0.231926C224.584 0.234395 224.556 0.237962 224.528 0.241529C224.499 0.245645 224.469 0.24976 224.44 0.255248C224.409 0.260735 224.379 0.267595 224.349 0.274728C224.323 0.280765 224.297 0.28735 224.271 0.294758C224.238 0.304087 224.207 0.314787 224.175 0.325762C224.152 0.333719 224.13 0.341676 224.107 0.350456C224.073 0.364175 224.039 0.379266 224.006 0.394631C223.987 0.40396 223.967 0.413014 223.947 0.423166C223.913 0.440726 223.879 0.460207 223.846 0.479962C223.834 0.48737 223.821 0.493406 223.809 0.501363C223.802 0.50493 223.798 0.50932 223.792 0.513162C223.759 0.534289 223.728 0.556787 223.697 0.580109C223.681 0.591908 223.665 0.603157 223.65 0.615504C223.239 0.943384 222.975 1.44741 222.975 2.01373V12.4038C222.975 13.3839 223.73 14.2383 224.71 14.2677C225.723 14.2984 226.554 13.4857 226.554 12.479L226.464 9.26632C226.453 8.85969 226.988 8.70165 227.199 9.04901L229.868 13.4352C230.209 13.9738 230.789 14.2687 231.383 14.2687C231.767 14.2687 232.157 14.145 232.49 13.8838C233.22 13.3125 233.358 12.2576 232.863 11.4742L226.277 1.05752Z" fill="white"/>
<path fill-rule="evenodd" clip-rule="evenodd" d="M170.113 0.253174H157.997C157.017 0.253174 156.162 1.00826 156.133 1.98778C156.103 3.00133 156.915 3.83241 157.922 3.83241H161.831C162.05 3.83241 162.228 4.00994 162.228 4.22889V12.4097C162.228 13.3895 162.983 14.2442 163.962 14.2735C164.976 14.3037 165.807 13.4913 165.807 12.4846V4.22889C165.807 4.00994 165.984 3.83241 166.203 3.83241H170.038C171.018 3.83241 171.872 3.07706 171.901 2.09753C171.932 1.08426 171.119 0.253174 170.113 0.253174" fill="white"/>
<path fill-rule="evenodd" clip-rule="evenodd" d="M120.543 0.253174H111.462C110.483 0.253174 109.628 1.00826 109.599 1.98806C109.568 3.00133 110.381 3.83241 111.388 3.83241H113.779C113.998 3.83241 114.175 4.00994 114.175 4.22889V12.4009C114.175 13.381 114.931 14.2354 115.91 14.2648C116.923 14.2952 117.755 13.4828 117.755 12.4761V4.22889C117.755 4.00994 117.932 3.83241 118.151 3.83241H120.467C121.448 3.83241 122.302 3.07706 122.331 2.09753C122.361 1.08426 121.549 0.253174 120.543 0.253174" fill="white"/>
<path fill-rule="evenodd" clip-rule="evenodd" d="M99.9025 3.83241C100.891 3.83241 101.692 3.03124 101.692 2.04293C101.692 1.05435 100.891 0.253174 99.9025 0.253174H99.6344C94.0651 0.253174 89.5338 4.7845 89.5338 10.3541V12.4761C89.5338 13.4644 90.3353 14.2656 91.3236 14.2656C92.3119 14.2656 93.1131 13.4644 93.1131 12.4761V10.3541C93.1131 6.75782 96.0385 3.83241 99.6344 3.83241H99.9025Z" fill="white"/>
<path fill-rule="evenodd" clip-rule="evenodd" d="M99.9368 9.92285H98.4219C97.4336 9.92285 96.6324 10.724 96.6324 11.7123C96.6324 12.7009 97.4336 13.5021 98.4219 13.5021H99.9368C100.925 13.5021 101.726 12.7009 101.726 11.7123C101.726 10.724 100.925 9.92285 99.9368 9.92285" fill="white"/>
<path fill-rule="evenodd" clip-rule="evenodd" d="M17.1039 15.7976C16.0904 15.7671 15.259 16.5795 15.259 17.5862L15.27 17.8085C15.2903 18.2203 14.7465 18.3855 14.5341 18.0321L13.7014 16.6462C13.1822 15.8052 12.0795 15.5446 11.2386 16.0637C10.3976 16.5828 10.1367 17.6855 10.6558 18.5265L15.526 26.4148C15.8577 26.9523 16.4396 27.2643 17.0488 27.2643C17.3303 27.2643 17.6178 27.1982 17.8889 27.0547C18.4879 26.738 18.8382 26.0908 18.8382 25.4133V17.6614C18.8382 16.6816 18.0834 15.8269 17.1039 15.7976" fill="white"/>
<path fill-rule="evenodd" clip-rule="evenodd" d="M1.78961 15.7968C0.801301 15.7968 0.00012207 16.5979 0.00012207 17.5862V25.4746C0.00012207 26.4631 0.801301 27.2643 1.78961 27.2643C2.77791 27.2643 3.57909 26.4631 3.57909 25.4746V17.5862C3.57909 16.5979 2.77791 15.7968 1.78961 15.7968" fill="white"/>
<path fill-rule="evenodd" clip-rule="evenodd" d="M76.0889 15.7976C75.0753 15.7671 74.244 16.5795 74.244 17.5862L74.255 17.8085C74.2753 18.2203 73.7314 18.3855 73.5191 18.0321L72.6863 16.6462C72.1672 15.8052 71.0645 15.5446 70.2235 16.0637C69.3826 16.5828 69.1216 17.6855 69.6408 18.5265L74.5109 26.4148C74.8427 26.9523 75.4246 27.2643 76.0337 27.2643C76.3152 27.2643 76.6028 27.1982 76.8739 27.0547C77.4728 26.738 77.8232 26.0908 77.8232 25.4133V17.6614C77.8232 16.6816 77.0684 15.8269 76.0889 15.7976" fill="white"/>
<path fill-rule="evenodd" clip-rule="evenodd" d="M60.7746 15.7968C59.7863 15.7968 58.9851 16.5979 58.9851 17.5862V25.4746C58.9851 26.4631 59.7863 27.2643 60.7746 27.2643C61.7629 27.2643 62.5641 26.4631 62.5641 25.4746V17.5862C62.5641 16.5979 61.7629 15.7968 60.7746 15.7968" fill="white"/>
<path fill-rule="evenodd" clip-rule="evenodd" d="M236.497 15.7976C235.484 15.7671 234.652 16.5795 234.652 17.5862L234.663 17.8085C234.684 18.2203 234.14 18.3855 233.927 18.0321L233.095 16.6462C232.575 15.8052 231.473 15.5446 230.632 16.0637C229.791 16.5828 229.53 17.6855 230.049 18.5265L234.919 26.4148C235.251 26.9523 235.833 27.2643 236.442 27.2643C236.724 27.2643 237.011 27.1982 237.282 27.0547C237.881 26.738 238.231 26.0908 238.231 25.4133V17.6614C238.231 16.6816 237.477 15.8269 236.497 15.7976" fill="white"/>
<path fill-rule="evenodd" clip-rule="evenodd" d="M221.183 15.7968C220.195 15.7968 219.393 16.5979 219.393 17.5862V25.4746C219.393 26.4631 220.195 27.2643 221.183 27.2643C222.171 27.2643 222.972 26.4631 222.972 25.4746V17.5862C222.972 16.5979 222.171 15.7968 221.183 15.7968" fill="white"/>
<path fill-rule="evenodd" clip-rule="evenodd" d="M146.488 17.7924C145.616 17.3257 144.532 17.6539 144.065 18.5248L144.029 18.5923C144.02 18.6082 144.012 18.6241 144.004 18.6403C142.41 21.8458 139.383 23.8372 136.106 23.8372C132.196 23.8372 129.069 21.5753 127.74 17.7864C127.737 17.7768 127.733 17.7669 127.73 17.7576C127.663 17.576 127.574 17.3076 127.549 17.1984C127.326 16.2356 126.366 15.6361 125.402 15.8567C124.44 16.079 123.839 17.0398 124.061 18.0029C124.147 18.3752 124.321 18.8578 124.367 18.9849C126.197 24.1862 130.694 27.4165 136.106 27.4165C140.742 27.4165 144.989 24.6749 147.196 20.2594L147.22 20.2149C147.687 19.3435 147.359 18.2592 146.488 17.7924" fill="white"/>
<path fill-rule="evenodd" clip-rule="evenodd" d="M160.435 15.7968C159.447 15.7968 158.646 16.5979 158.646 17.5862V25.4746C158.646 26.4631 159.447 27.2643 160.435 27.2643C161.424 27.2643 162.225 26.4631 162.225 25.4746V17.5862C162.225 16.5979 161.424 15.7968 160.435 15.7968" fill="white"/>
<path fill-rule="evenodd" clip-rule="evenodd" d="M116.886 23.6851H114.569C114.35 23.6851 114.173 23.5076 114.173 23.2886V17.6614C114.173 16.6816 113.418 15.8269 112.438 15.7976C111.425 15.7671 110.594 16.5796 110.594 17.5862V23.2886C110.594 23.5076 110.416 23.6851 110.197 23.6851H107.881C106.901 23.6851 106.046 24.4402 106.017 25.42C105.987 26.4332 106.799 27.2643 107.805 27.2643H116.961C117.967 27.2643 118.78 26.4332 118.749 25.4197C118.72 24.4402 117.866 23.6851 116.886 23.6851" fill="white"/>
<path fill-rule="evenodd" clip-rule="evenodd" d="M176.961 15.7968C175.972 15.7968 175.171 16.5979 175.171 17.5862V25.4746C175.171 26.4631 175.972 27.2643 176.961 27.2643C177.949 27.2643 178.75 26.4631 178.75 25.4746V17.5862C178.75 16.5979 177.949 15.7968 176.961 15.7968" fill="white"/>
<path fill-rule="evenodd" clip-rule="evenodd" d="M87.7416 15.7968C86.7533 15.7968 85.9521 16.5979 85.9521 17.5862V25.4746C85.9521 26.4631 86.7533 27.2643 87.7416 27.2643C88.7299 27.2643 89.5311 26.4631 89.5311 25.4746V17.5862C89.5311 16.5979 88.7299 15.7968 87.7416 15.7968" fill="white"/>
<path fill-rule="evenodd" clip-rule="evenodd" d="M209.959 15.8669C209.007 15.6008 208.02 16.158 207.754 17.1099L207.75 17.1244C206.428 21.0875 202.957 23.7478 199.101 23.7478C195.236 23.7478 191.757 21.0743 190.442 17.0953C190.414 17.0108 190.38 16.9285 190.34 16.8492L190.303 16.7759C189.857 15.8941 188.78 15.5407 187.898 15.9863C187.032 16.4242 186.675 17.4707 187.086 18.3434C188.918 23.7226 193.73 27.3271 199.101 27.3271C204.518 27.3271 209.365 23.6614 211.162 18.206C211.171 18.1802 211.179 18.1536 211.186 18.127L211.202 18.0713C211.467 17.1192 210.911 16.1322 209.959 15.8669" fill="white"/>
<path fill-rule="evenodd" clip-rule="evenodd" d="M49.524 15.865C48.5747 15.5898 47.5822 16.1364 47.307 17.086L47.2966 17.1222C46.0112 21.0862 42.635 23.7476 38.8881 23.7476C35.1151 23.7476 31.7271 21.0582 30.4579 17.0547C30.4474 17.0221 30.4362 16.9897 30.4238 16.9576L30.42 16.9475C30.0674 16.0239 29.0352 15.5668 28.1119 15.9186C27.2169 16.2602 26.7562 17.2474 27.0498 18.1487C28.7962 23.639 33.552 27.3268 38.8881 27.3268C44.2025 27.3268 48.9541 23.6568 50.7115 18.1942C50.717 18.1778 50.7219 18.161 50.7269 18.1443L50.745 18.0817C51.0199 17.1327 50.4733 16.14 49.524 15.865" fill="white"/>
<path fill-rule="evenodd" clip-rule="evenodd" d="M54.9262 12.2783C54.2817 5.27845 48.9234 0 42.4621 0C36.0239 0 30.6823 5.23894 30.0054 12.2004C29.8556 13.141 30.4724 14.0415 31.4149 14.2338C31.5356 14.2585 31.6561 14.2703 31.7749 14.2703C32.6073 14.2703 33.3534 13.6859 33.5262 12.8383L33.5328 12.8062C33.546 12.7418 33.5556 12.6767 33.5616 12.6114C34.0333 7.46222 37.8597 3.57924 42.4621 3.57924C47.0623 3.57924 50.8885 7.46002 51.3599 12.5802L51.3629 12.6164C51.4389 13.6019 52.298 14.3342 53.2849 14.2629C54.2702 14.1869 55.0074 13.3265 54.9314 12.3412L54.9262 12.2783Z" fill="white"/>
</svg>
